<?xml version="1.0" encoding="UTF-8"?>
<svg id="Ferrari_XXX_Bild" data-name="Ferrari_XXX Bild" xmlns="http://www.w3.org/2000/svg" viewBox="0 0 1180 370">
  <path d="M946,69v23H159.5c-1.24,0-5.5,5.22-5.5,6.5v58.5c15.11,1.37,18.27-.34,17-16h18v55h-18c1.28-16.09-.82-18.52-17-17v57.5c0,.7,4.05,5.5,4.5,5.5h22.5v26h-98v-26h21.5c2.29,0,6.45-5.73,5.55-8.45l-.55-135.55c-.27-.45-2.72-2-3-2h-19.5v-27h859Z"/>
  <path d="M349,204h-83l1.06,43.44c.92,4.29,4.12,7.08,8.42,7.58,3.86.45,23.89.62,26.82-.23,3.5-1.02,6.71-9.2,6.71-12.29v-19.5h38.5l1.5,1.5v21c0,12.38-14.69,21.12-25.61,22.39-16.83,1.97-55.71,1.66-72.88.09-13.57-1.24-23.74-9.6-25.5-23.5,1.79-31.91-2.42-66.44-.05-98.03.82-10.95,6.56-20.45,17.6-23.4s62.27-2.17,75.98-1.09c14.46,1.14,30.46,11.41,30.46,27.54v54.5ZM309,190c-.34-10.12.47-20.37-.01-30.49-.21-4.37-.45-12.08-1.05-15.95s-3.44-6.12-7.42-6.58c-5.69-.66-20.37-.67-26.04,0-2.01.24-7.48,2.84-7.48,4.52v48.5h42Z"/>
  <path d="M791,246h12v22h-106.5c-1.08,0-8.01-2.71-9.54-3.46-5.03-2.49-9.81-7.14-11.29-12.71-2.5-9.43-3.05-45.9-.17-54.81.92-2.86,3.17-6.54,5.46-8.54,1.39-1.21,9.29-5.47,10.53-5.47h59.5v-41.5c0-2.7-3.16-7.21-5.95-8.05-3.51-1.06-21.25-.91-24.89.22-2.84.88-6.16,5.23-6.16,7.84v23.5h-37v-27.5c0-.44,2.59-5.97,3.16-6.84,3.32-5.06,10.59-7.87,16.45-8.55,15.35-1.79,52.33-1.64,67.88-.1,8.74.87,18.7,6.33,22.71,14.29.64,1.26,3.8,10.46,3.8,11.2v98.5ZM751,196h-29.5c-4.35,0-6.25,8.04-6.53,11.47-.81,9.56-.91,28.51.14,37.92.29,2.62,2.28,9.61,5.39,9.61h30.5v-59Z"/>
  <path d="M426,122v20l21.62-13.88c11.17-6.49,35.07-7.93,43.84,2.92.73.91,4.54,8.85,4.54,9.46v61.5h-36c.02-16.5,0-33.03-.04-49.54,0-2.69,2.46-12.52-3.66-9.68-5.79,2.69-30.3,20.73-30.3,26.72v76.5h15v22h-70v-22h16v-105h-15v-19h54Z"/>
  <path d="M583,122v20c15.14-12.56,44.57-28.51,62.48-12.98,3.06,2.66,7.52,10.7,7.52,14.48v58.5h-36v-57.5c0-.29-1.58-1.51-2.02-2.05-1.84-.93-11.04,6.14-13.29,7.74-3.9,2.77-18.69,13.92-18.69,18.31v77.5h14v22h-70v-22h17v-105h-15v-19h54Z"/>
  <path d="M877,122v20c4.42-1.96,7.93-5.77,12.08-8.42,13.6-8.66,33.12-15.98,48.25-6.42,3.61,2.28,9.66,10.26,9.66,14.34v60.5h-36v-58.5l-2.32-1.36c-6.01,3.03-31.68,20.37-31.68,26.36v77.5h14v22h-69v-22h16v-105h-15v-19h54Z"/>
  <path d="M1043,140l-15,1v102.5c0,3.36,10.75,2.5,13,2.5v22h-69v-22c3.06-.3,11.38,1.03,13.08-1.67l.42-102.34c-1.71-3.51-10.02-1.5-13.5-2v-16.5l1.5-1.5h68l1.5,1.5v16.5Z"/>
  <path d="M998.8,68.3c9.78-.91,30.79.19,38.25,7.15,10.49,9.8-13.83,15.78-20.67,16.42-12.33,1.16-37.97,1.33-43.16-12.22.71-7.55,19.65-10.81,25.59-11.36Z"/>
</svg>